<svg width="85" height="46" viewBox="0 0 85 46" fill="none" xmlns="http://www.w3.org/2000/svg">
<path d="M0 45.8819H2.3614C3.55686 45.8819 4.1177 45.2621 4.1177 44.3913C4.1177 43.6829 3.74873 43.2106 2.98127 43.063C3.66017 42.9007 3.97011 42.4874 3.97011 41.8823C3.97011 41.1149 3.40928 40.495 2.21382 40.495H0.0147588V45.8819H0ZM2.05147 43.5943C2.49423 43.5943 2.80417 43.8157 2.80417 44.2585C2.80417 44.7308 2.50899 44.9226 2.05147 44.9226H1.28401V43.5796H2.05147V43.5943ZM1.90388 41.4395C2.34664 41.4395 2.65658 41.6314 2.65658 42.0742C2.65658 42.5169 2.3614 42.7088 1.90388 42.7088H1.28401V41.4395H1.90388ZM8.88478 40.4802H7.55649L5.53454 45.8819H6.87759L7.24655 44.7603H9.19471L9.56368 45.8819H10.9215L8.88478 40.4802ZM8.22063 41.779L8.85526 43.7714H7.55649L8.22063 41.779ZM17.6515 40.4802H16.4265V44.0961L14.1241 40.4802H12.7516V45.8819H13.9766V42.2808L16.2789 45.8819H17.6515V40.4802ZM23.3041 45.8819L21.533 43.1368V45.8819H20.2195V40.4802H21.533V43.0778L23.2155 40.4802H24.6767L22.9056 43.0778L24.839 45.8819H23.3041ZM29.488 43.1811C29.488 44.2585 30.1374 44.9226 30.9787 44.9226C31.8199 44.9226 32.4693 44.2585 32.4693 43.1811C32.4693 42.1037 31.8199 41.4395 30.9787 41.4395C30.1374 41.4395 29.488 42.1037 29.488 43.1811ZM28.1007 43.1811C28.1155 41.6019 29.2224 40.3622 30.9787 40.3622C32.7349 40.3622 33.8419 41.6019 33.8566 43.1811C33.8419 44.7603 32.7349 46 30.9787 46C29.2224 46 28.1155 44.7603 28.1007 43.1811ZM35.6572 45.8819H36.9707V43.7567H38.6827V42.7236H36.9707V41.5133H39.0369L39.2731 40.4802H35.6572V45.8819ZM45.398 40.4802H44.0697L42.0477 45.8819H43.3908L43.7597 44.7603H45.7079L46.0769 45.8819H47.4347L45.398 40.4802ZM44.7338 41.779L45.3685 43.7714H44.0697L44.7338 41.779ZM55.2273 40.4802H53.6924L52.2903 43.4025L50.8882 40.4802H49.3533V45.8819H50.534V42.266L52.2756 45.8819L54.0171 42.266V45.8819H55.2421L55.2273 40.4802ZM57.7806 45.8819H61.4703V44.8488H59.0941V43.6386H60.9685V42.635H59.0941V41.5133H61.2636L61.4998 40.4802H57.7806V45.8819ZM66.4735 45.8819H67.9051L66.562 43.5943C67.3 43.3877 67.6542 42.8711 67.6542 42.1184C67.6542 41.1444 67.0638 40.495 65.7355 40.495H63.6546V45.8967H64.9386V43.7714H65.2928L66.4735 45.8819ZM65.4847 41.4838C66.0307 41.4838 66.3111 41.72 66.3111 42.1775C66.3111 42.635 66.0307 42.8711 65.4847 42.8711H64.9238V41.4838H65.4847ZM69.868 45.8819H71.1815V40.495H69.868V45.8819ZM77.6459 44.4356C77.1441 44.7898 76.7013 44.9079 76.2438 44.9079C75.2402 44.9079 74.5318 44.2142 74.5318 43.1811C74.5318 42.148 75.2254 41.4543 76.1995 41.4543C76.6423 41.4543 77.085 41.5724 77.5721 41.9266V40.7016C77.1293 40.4507 76.6128 40.3474 76.0372 40.3474C74.2514 40.3474 73.1297 41.5871 73.1149 43.1663C73.1297 44.7603 74.2218 45.9852 76.0372 45.9852C76.6423 45.9852 77.1588 45.8819 77.6311 45.631V44.4356H77.6459ZM82.4572 40.4802H81.129L79.107 45.8819H80.45L80.819 44.7603H82.7672L83.1361 45.8819H84.4939L82.4572 40.4802ZM81.7931 41.779L82.4277 43.7714H81.129L81.7931 41.779Z" fill="#1545AF"/>
<path d="M42.1763 32.3666C51.6034 24.2862 64.8463 16.4302 72.1187 13.602C70.9964 12.8838 69.2457 11.8513 67.2705 10.729C57.8882 13.8265 46.9347 20.6949 37.1484 28.461C38.8094 29.718 40.5602 31.0198 42.1763 32.3666Z" fill="#E31837"/>
<path d="M37.8675 10.4148C36.4759 9.74142 34.9496 9.11294 33.7824 8.57425C30.236 10.325 25.6122 12.9736 19.7764 17.1485C21.0333 17.8218 22.3801 18.6299 23.8166 19.4379C28.3057 16.116 32.8397 12.9736 37.8675 10.4148Z" fill="#1545AF"/>
<path d="M46.2617 6.5541C44.5558 5.61138 38.6302 3.41171 34.5451 2.46899C33.333 2.91791 31.6271 3.59128 30.46 4.08508C31.9414 4.4891 37.463 5.97051 42.1766 8.34975C43.3886 7.76616 45.0945 7.0479 46.2617 6.5541Z" fill="#E31837"/>
<path d="M26.1967 5.97052C20.9444 8.39465 15.4228 11.7166 12.415 13.6469C13.4924 14.1407 14.5698 14.5447 16.0512 15.263C22.6951 10.7739 27.9025 8.03552 29.9675 7.13769C28.4861 6.599 27.0945 6.23987 26.1967 5.97052Z" fill="#1545AF"/>
<path d="M50.2134 5.16249C51.4255 4.75847 52.8171 4.39934 54.0292 4.04021C50.5276 2.5588 46.1283 0.987607 42.1779 0C41.5494 0.179565 39.664 0.673369 38.3621 1.07739C39.7088 1.48141 44.1531 2.51391 50.2134 5.16249ZM28.082 22.0416C29.5186 22.8945 31.0448 24.0617 32.5262 25.0493C42.3574 17.4178 52.0539 11.537 62.6932 8.2151C61.2118 7.45194 59.9099 6.77858 58.2489 5.97053C51.8744 7.58662 40.9658 11.9411 28.082 22.0416Z" fill="#E31837"/>
</svg>
