<svg width="139" height="26" viewBox="0 0 139 26" fill="none" xmlns="http://www.w3.org/2000/svg">
<path d="M122.063 0C121.56 0 121.153 0.406858 121.153 0.908547V7.28068H137.998L130.327 0.000587763L122.063 0Z" fill="#117ACA"/>
<path d="M138.614 9.20842C138.614 8.70555 138.21 8.30045 137.704 8.30045H131.329V25.1332L138.611 17.4644L138.614 9.20842Z" fill="#117ACA"/>
<path d="M129.397 25.7426C129.899 25.7426 130.306 25.3351 130.306 24.8323V18.4625H113.461L121.133 25.7414L129.397 25.7426Z" fill="#117ACA"/>
<path d="M112.846 16.5353C112.846 17.0376 113.253 17.4468 113.757 17.4468H120.13V0.612915L112.847 8.27937L112.846 16.5353Z" fill="#117ACA"/>
<path d="M35.6376 3.07278V10.8464H24.7998V3.07278L20.8525 3.06927V22.6698H24.7998V14.2493H35.6376V22.6698H39.5914V3.07278H35.6376Z" fill="#181D27"/>
<path d="M88.1494 3.07278V22.6651H105.467L103.274 19.2159H92.1079V14.2493H102.92V10.9272H92.1079V6.4412H103.255L105.404 3.07278H88.1494Z" fill="#181D27"/>
<path d="M6.17991 3.06812C2.07385 3.06812 0 5.56252 0 9.19204V16.5084C0 20.7087 2.67254 22.6698 6.1594 22.6698L18.5438 22.6686L16.2479 19.086H6.92449C4.9438 19.086 4.08088 18.3706 4.08088 16.1554V9.51752C4.08088 7.37611 4.80731 6.54074 6.97721 6.54074H16.3452L18.5497 3.06812H6.17991Z" fill="#181D27"/>
<path d="M70.828 3.06343C68.4565 3.06343 66.026 4.48772 66.026 8.15118V9.09251C66.026 12.9117 68.3646 14.3688 70.7044 14.3787H78.9171C79.7701 14.3787 80.4631 14.5204 80.4631 15.9611L80.4619 17.6254C80.4402 18.9197 79.7941 19.2159 78.8878 19.2159H68.0834L65.8701 22.6651H79.142C82.3424 22.6651 84.5153 21.074 84.5153 17.3988V16.0483C84.5153 12.4949 82.4965 10.8159 79.3664 10.8159H71.5245C70.6552 10.8159 70.0494 10.5788 70.0494 9.29213V7.93692C70.0494 6.84104 70.4648 6.44121 71.4777 6.44121L81.7671 6.43712L83.9177 3.05875L70.828 3.06343Z" fill="#181D27"/>
<path d="M51.0598 3.07278L41.7598 22.6686H46.1552L47.9666 18.6217H58.0727L59.8782 22.6686H64.2931L54.9714 3.07278H51.0598ZM53.01 7.14135L56.5836 15.2861H49.4593L53.01 7.14135Z" fill="#181D27"/>
</svg>
