<svg width="121" height="46" viewBox="0 0 121 46" fill="none" xmlns="http://www.w3.org/2000/svg">
<path fill-rule="evenodd" clip-rule="evenodd" d="M98.4074 31.7067H102.718V14.4706H98.4074V31.7067ZM119.455 17.7012C118.91 16.9047 118.211 16.2274 117.4 15.7119C116.099 14.8844 114.323 14.4716 112.075 14.4716H106.395V31.7067H113.039C115.44 31.7067 117.366 30.915 118.82 29.3298C120.274 27.7455 121 25.6429 121 23.0237C121 20.9404 120.485 19.1663 119.455 17.7012ZM112.557 27.8046H110.706V18.3727H112.583C113.901 18.3727 114.914 18.7893 115.625 19.6197C116.336 20.4502 116.691 21.6284 116.691 23.1536C116.691 26.2543 115.313 27.8046 112.557 27.8046ZM17.8976 0L3.92773 3.69178L0.0777863 17.8669L4.89286 22.8551L0 27.761L3.62331 41.9981L17.5327 45.9196L22.4265 41.0127L27.2415 46L41.2114 42.3082L45.0604 28.1322L40.2463 23.1458L45.1391 18.2399L41.5158 4.00185L27.6045 0.0804247L22.7126 4.98633L17.8976 0ZM9.32476 6.41847L16.6837 4.47277L19.9018 7.80604L15.2087 12.5114L9.32476 6.41847ZM25.4793 7.85061L28.7493 4.57258L36.0765 6.63843L30.0966 12.6335L25.4793 7.85061ZM4.48664 16.7031L6.51389 9.23721L12.3959 15.3301L7.70373 20.0354L4.48664 16.7031ZM32.8614 15.4987L38.8413 9.50174L40.7485 17.0016L37.4796 20.2806L32.8614 15.4987ZM17.9744 15.3756L22.6675 10.6703L27.2838 15.4532L22.5916 20.1585L17.9744 15.3756ZM10.4704 22.8997L15.1626 18.1944L19.7817 22.9772L15.0877 27.6826L10.4704 22.8997ZM25.3583 23.0228L30.0505 18.3174L34.6677 23.1003L29.9746 27.8056L25.3583 23.0228ZM4.38869 28.9984L7.65955 25.7185L12.2758 30.5023L6.29781 36.4963L4.38869 28.9984ZM17.8534 30.5468L22.5465 25.8415L27.1638 30.6244L22.4716 35.3297L17.8534 30.5468ZM32.7404 30.6709L37.4335 25.9655L40.6515 29.2978L38.6252 36.7638L32.7404 30.6709ZM9.06259 39.3625L15.0416 33.3656L19.6607 38.1484L16.3899 41.4284L9.06259 39.3625ZM25.2373 38.194L29.9295 33.4886L35.8124 39.5825L28.4544 41.5272L25.2373 38.194Z" fill="#181D27"/>
<path fill-rule="evenodd" clip-rule="evenodd" d="M63.62 15.7632C62.605 14.9018 60.8726 14.4716 58.4218 14.4716H52.8942V31.7076H57.0274V26.3056H58.8789C61.1261 26.3056 62.774 25.8066 63.8227 24.8076C65.0039 23.6884 65.5983 22.1982 65.5983 20.3377C65.5983 18.4085 64.9386 16.8833 63.62 15.7632ZM58.7762 22.4055H57.0274V18.3717H58.5985C60.5096 18.3717 61.4651 19.048 61.4651 20.4007C61.4651 21.736 60.5681 22.4055 58.7762 22.4055ZM72.6711 14.4706H68.3612V31.7067H77.6667V27.8056H72.6711V14.4706ZM86.1109 14.4706L79.3406 31.7067H83.9809L84.8682 29.2009H90.7512L91.5626 31.7067H96.2548L89.5325 14.4706H86.1109ZM86.06 25.7117L87.8356 19.8203L89.5834 25.7117H86.06Z" fill="#181D27"/>
</svg>
