<svg width="46" height="46" viewBox="0 0 46 46" fill="none" xmlns="http://www.w3.org/2000/svg">
<g clip-path="url(#clip0_9410_2912)">
<path d="M0 46.0001H46V9.53674e-05H0V46.0001Z" fill="#DD1E25"/>
<path d="M39.6436 28.3017C39.6436 26.4535 38.8811 25.3775 37.4715 25.3775C36.0613 25.3775 35.2994 26.4535 35.2994 28.3017C35.2994 30.1609 36.051 31.226 37.4715 31.226C38.8915 31.226 39.6436 30.1609 39.6436 28.3017ZM41.3564 28.3017C41.3564 30.5784 39.7378 32.1763 37.4715 32.1763C35.2156 32.1763 33.5867 30.5784 33.5867 28.3017C33.5867 26.0355 35.2259 24.4272 37.4715 24.4272C39.7269 24.4272 41.3564 26.0355 41.3564 28.3017ZM29.6174 28.6359C29.6174 28.8443 29.649 28.9804 29.7322 29.1475H30.9753V30.9957C30.5682 31.1634 30.1606 31.2363 29.7431 31.2363C28.2388 31.2363 27.4556 30.1609 27.4556 28.3017C27.4556 26.4426 28.2388 25.3671 29.6593 25.3671C30.6096 25.3671 31.1631 25.8374 31.4869 26.6516L31.6017 26.9438H32.3539V25.0749C31.414 24.6259 30.5682 24.4272 29.5864 24.4272C27.2885 24.4272 25.7434 25.9626 25.7434 28.3121C25.7434 30.6725 27.2472 32.1763 29.5864 32.1763C30.5154 32.1763 31.4766 31.915 32.5101 31.4034V28.145H29.7322C29.649 28.3121 29.6174 28.4378 29.6174 28.6359ZM23.2676 26.7353C23.2676 25.9728 22.7973 25.5658 21.8574 25.5658H20.6252V27.9153H21.8574C22.787 27.9153 23.2676 27.487 23.2676 26.7353ZM15.0902 28.8656L14.0664 26.0981L13.0433 28.8656H15.0902ZM25.2933 31.1422C25.3564 31.2569 25.3874 31.393 25.3874 31.5705C25.3874 31.7479 25.3564 31.884 25.2933 31.9988C25.0636 32.0298 24.7714 32.0505 24.4791 32.0505C23.4663 32.0505 22.9753 31.6331 22.8599 30.6616L22.8186 30.2964C22.6934 29.2417 22.3483 28.8346 21.2 28.8346H20.6252V31.0589H21.6174V31.9672H15.0483V31.0589H15.905L15.4244 29.7533H12.7091L12.2285 31.0589H13.1059V31.9672H10.3383V31.0589H11.0693L13.6278 24.6569H15.0167L17.6281 31.0589H19.0692V25.5658H18.1816V24.6569H22.3799C23.8733 24.6569 24.8443 25.3986 24.8443 26.589C24.8443 27.7689 23.8733 28.3959 22.9334 28.4378V28.4688C23.8837 28.5418 24.2701 29.0746 24.3643 29.8997L24.4056 30.2861C24.4682 30.8918 24.5939 31.1634 25.0739 31.1634C25.1578 31.1634 25.2307 31.1525 25.2933 31.1422ZM9.37716 25.5658C10.0765 25.5658 10.3171 25.8684 10.5468 26.7457L10.6197 27.0277H11.3718V24.6569H5.07487V25.5658H5.96255V31.0589H5.07487V31.9672H8.56241V31.0589H7.51799V28.9282H9.66942C9.75325 28.7508 9.78425 28.6153 9.78425 28.4063C9.78425 28.2076 9.75325 28.0824 9.66942 27.905H7.51799V25.5658H9.37716ZM41.106 18.8497C41.106 17.7007 40.4061 16.9073 39.0901 16.6047L37.7638 16.3015C36.9909 16.1241 36.6677 15.8209 36.6677 15.3099C36.6677 14.6932 37.1586 14.3068 38.1192 14.3068C39.0798 14.3068 39.6436 14.6519 39.863 15.4661L39.9571 15.8209H40.7087V14.0146C39.863 13.5862 38.9649 13.3675 38.056 13.3675C36.2703 13.3675 35.122 14.2236 35.122 15.6016C35.122 16.6672 35.7898 17.4504 37.0748 17.7323L38.4011 18.0246C39.2469 18.2129 39.5604 18.5471 39.5604 19.1006C39.5604 19.7793 39.0482 20.1554 38.025 20.1554C36.8658 20.1554 36.2703 19.6955 36.0097 18.8187L35.8736 18.3691H35.122V20.4166C36.0723 20.8863 36.9806 21.0952 38.2024 21.0952C39.9571 21.0952 41.106 20.2179 41.106 18.8497ZM34.4215 18.3903H33.6699L33.5861 18.7561C33.3771 19.6851 33.0848 19.9774 32.3958 19.9774H30.9443V14.4848H31.9365V13.5759H28.5V14.4848H29.3883V19.9774H28.5V20.8863H34.4215V18.3903ZM27.842 18.3903H27.0899L27.0066 18.7561C26.7976 19.6851 26.5054 19.9774 25.8164 19.9774H24.3643V14.4848H25.3564V13.5759H21.9206V14.4848H22.8083V19.9774H21.9206V20.8863H27.842V18.3903ZM6.58897 20.8863L4.75046 14.4848H3.91504V13.5759H7.31989V14.4848H6.33806L7.5599 18.8916L9.02175 13.5759H10.5261L12.0189 18.9019L13.2201 14.4848H12.1969V13.5759H21.0536V15.9467H20.3014L20.2285 15.6647C19.9982 14.7874 19.7582 14.4848 19.0589 14.4848H17.3255V16.6879H19.4246C19.5079 16.8653 19.5389 16.9911 19.5389 17.1892C19.5389 17.3982 19.5079 17.5336 19.4246 17.7117H17.3255V19.9774H19.1318C19.8105 19.9774 20.1137 19.6851 20.3227 18.7561L20.4059 18.3903H21.1581V20.8863H14.8818V19.9774H15.7694V14.4848H14.3271L12.4995 20.8863H11.048L9.56492 15.5815L8.04048 20.8863H6.58897Z" fill="#FEFEFE"/>
</g>
<defs>
<clipPath id="clip0_9410_2912">
<rect width="46" height="46" fill="white"/>
</clipPath>
</defs>
</svg>
